<svg width="1000" height="200" viewBox="0 0 1000 200" fill="none" xmlns="http://www.w3.org/2000/svg">
<path d="M0 0H1000V160C1000 182.091 982.091 200 960 200H0V0Z" fill="url(#paint0_linear_415_372)"/>
<g filter="url(#filter0_i_415_372)">
<path fill-rule="evenodd" clip-rule="evenodd" d="M153.589 86.5886C142.756 75.7566 125.194 75.7566 114.362 86.5886C103.53 97.4207 103.53 114.983 114.362 125.815C125.194 136.647 142.756 136.647 153.589 125.815C164.421 114.983 164.421 97.4207 153.589 86.5886ZM158.492 81.6853C144.952 68.1452 122.999 68.1452 109.459 81.6853C95.9187 95.2254 95.9187 117.178 109.459 130.718C122.999 144.258 144.952 144.258 158.492 130.718C172.032 117.178 172.032 95.2254 158.492 81.6853Z" fill="url(#paint1_linear_415_372)"/>
<path fill-rule="evenodd" clip-rule="evenodd" d="M153.589 86.5886C142.756 75.7566 125.194 75.7566 114.362 86.5886C103.53 97.4207 103.53 114.983 114.362 125.815C125.194 136.647 142.756 136.647 153.589 125.815C164.421 114.983 164.421 97.4207 153.589 86.5886ZM158.492 81.6853C144.952 68.1452 122.999 68.1452 109.459 81.6853C95.9187 95.2254 95.9187 117.178 109.459 130.718C122.999 144.258 144.952 144.258 158.492 130.718C172.032 117.178 172.032 95.2254 158.492 81.6853Z" fill="url(#paint2_linear_415_372)"/>
</g>
<g filter="url(#filter1_b_415_372)">
<path fill-rule="evenodd" clip-rule="evenodd" d="M116.041 136.863C130.81 143.358 149.62 134.267 157.773 115.726C165.927 97.184 159.912 77.1773 145.143 70.6828C130.373 64.1882 111.564 73.2786 103.41 91.8203C95.2567 110.362 101.271 130.369 116.041 136.863ZM115.403 138.313C131.216 145.266 150.835 135.439 159.223 116.363C167.611 97.2873 161.593 76.1864 145.78 69.2331C129.968 62.2797 110.349 72.107 101.96 91.1829C93.5721 110.259 99.5907 131.36 115.403 138.313Z" fill="url(#paint3_linear_415_372)"/>
<path fill-rule="evenodd" clip-rule="evenodd" d="M117.782 132.903C132.551 139.398 150.207 132.933 156.889 117.738C163.571 102.542 156.401 85.1609 141.632 78.6663C126.863 72.1718 109.207 78.6366 102.525 93.8321C95.8435 109.028 103.013 126.409 117.782 132.903ZM117.26 134.091C133.072 141.045 151.464 134.008 158.338 118.375C165.213 102.742 157.967 84.4316 142.154 77.4783C126.342 70.5249 107.95 77.5614 101.076 93.1947C94.2013 108.828 101.447 127.138 117.26 134.091Z" fill="url(#paint4_linear_415_372)"/>
<path fill-rule="evenodd" clip-rule="evenodd" d="M101.794 116.524C108.348 131.326 127.803 137.482 145.522 129.636C163.241 121.79 171.76 103.248 165.206 88.446C158.652 73.6445 139.197 67.4885 121.478 75.3343C103.759 83.1802 95.2397 101.723 101.794 116.524ZM100.346 117.166C107.339 132.96 127.853 139.192 146.163 131.084C164.474 122.976 173.648 103.6 166.654 87.8049C159.661 72.0101 139.147 65.7785 120.837 73.8863C102.526 81.9941 93.3519 101.371 100.346 117.166Z" fill="url(#paint5_linear_415_372)"/>
<path fill-rule="evenodd" clip-rule="evenodd" d="M153.114 134.425C166.503 125.378 168.981 104.872 157.879 88.4408C146.777 72.0097 126.827 66.6577 113.437 75.7049C100.047 84.7522 97.5694 105.258 108.672 121.69C119.774 138.121 139.724 143.473 153.114 134.425ZM154 135.738C168.313 126.067 170.637 104.494 159.191 87.5542C147.745 70.6143 126.863 64.7217 112.55 74.3928C98.2374 84.0638 95.9135 105.636 107.36 122.576C118.806 139.516 139.688 145.409 154 135.738Z" fill="url(#paint6_linear_415_372)"/>
</g>
<path d="M205.744 85.72H213.52C217.904 85.72 221.104 86.664 223.12 88.552C225.168 90.408 226.192 92.968 226.192 96.232C226.192 100.008 225.088 102.904 222.88 104.92C220.672 106.936 217.392 107.944 213.04 107.944H211.168V121H205.744V85.72ZM213.184 103.192C216 103.192 217.968 102.568 219.088 101.32C220.208 100.072 220.768 98.568 220.768 96.808C220.768 94.92 220.224 93.384 219.136 92.2C218.048 91.016 216.224 90.424 213.664 90.424H211.168V103.192H213.184ZM247.421 121.48C244.221 121.48 241.261 120.744 238.541 119.272C235.853 117.768 233.709 115.64 232.109 112.888C230.509 110.136 229.709 106.936 229.709 103.288C229.709 99.608 230.509 96.408 232.109 93.688C233.709 90.936 235.853 88.824 238.541 87.352C241.261 85.88 244.221 85.144 247.421 85.144C250.621 85.144 253.565 85.88 256.253 87.352C258.973 88.824 261.133 90.936 262.733 93.688C264.333 96.408 265.133 99.608 265.133 103.288C265.133 106.936 264.333 110.136 262.733 112.888C261.133 115.64 258.973 117.768 256.253 119.272C253.565 120.744 250.621 121.48 247.421 121.48ZM247.421 116.632C249.629 116.632 251.645 116.12 253.469 115.096C255.293 114.04 256.733 112.52 257.789 110.536C258.877 108.52 259.421 106.12 259.421 103.336C259.421 100.52 258.877 98.12 257.789 96.136C256.733 94.12 255.293 92.6 253.469 91.576C251.677 90.552 249.661 90.04 247.421 90.04C245.181 90.04 243.149 90.552 241.325 91.576C239.501 92.6 238.061 94.12 237.005 96.136C235.949 98.12 235.421 100.52 235.421 103.336C235.421 106.12 235.965 108.52 237.053 110.536C238.141 112.52 239.597 114.04 241.421 115.096C243.277 116.12 245.277 116.632 247.421 116.632ZM288.751 121L281.647 107.656C280.175 107.72 278.863 107.752 277.711 107.752H276.367V121H271.135V85.72H279.151C283.215 85.72 286.559 86.568 289.183 88.264C291.807 89.928 293.119 92.648 293.119 96.424C293.119 98.792 292.559 100.84 291.439 102.568C290.351 104.264 288.719 105.576 286.543 106.504L294.943 121H288.751ZM279.775 103.384C282.911 103.384 285.055 102.712 286.207 101.368C287.391 99.992 287.983 98.36 287.983 96.472C287.983 92.28 285.183 90.184 279.583 90.184H276.367V103.384H279.775ZM305.23 90.424H296.206V85.72H319.678V90.424H310.558V121H305.23V90.424ZM334.906 85.672L351.898 121H345.706L342.682 114.088H326.506L323.482 121H317.482L334.378 85.672H334.906ZM332.506 100.696L328.666 109.24H340.57L336.778 100.744L334.714 95.896H334.618L332.506 100.696ZM354.853 85.72H360.277V116.2H370.405V121H354.853V85.72Z" fill="white"/>
<g filter="url(#filter2_b_415_372)">
<path fill-rule="evenodd" clip-rule="evenodd" d="M116.041 136.863C130.81 143.358 149.62 134.267 157.773 115.726C165.927 97.184 159.912 77.1773 145.143 70.6828C130.373 64.1882 111.564 73.2786 103.41 91.8203C95.2567 110.362 101.271 130.369 116.041 136.863ZM115.403 138.313C131.216 145.266 150.835 135.439 159.223 116.363C167.611 97.2873 161.593 76.1864 145.78 69.2331C129.968 62.2797 110.349 72.107 101.96 91.1829C93.5721 110.259 99.5907 131.36 115.403 138.313Z" fill="url(#paint7_linear_415_372)"/>
<path fill-rule="evenodd" clip-rule="evenodd" d="M117.782 132.903C132.551 139.398 150.207 132.933 156.889 117.738C163.571 102.542 156.401 85.1609 141.632 78.6663C126.863 72.1718 109.207 78.6366 102.525 93.8321C95.8435 109.028 103.013 126.409 117.782 132.903ZM117.26 134.091C133.072 141.045 151.464 134.008 158.338 118.375C165.213 102.742 157.967 84.4316 142.154 77.4783C126.342 70.5249 107.95 77.5614 101.076 93.1947C94.2013 108.828 101.447 127.138 117.26 134.091Z" fill="url(#paint8_linear_415_372)"/>
<path fill-rule="evenodd" clip-rule="evenodd" d="M101.794 116.524C108.348 131.326 127.803 137.482 145.522 129.636C163.241 121.79 171.76 103.248 165.206 88.446C158.652 73.6445 139.197 67.4885 121.478 75.3343C103.759 83.1802 95.2397 101.723 101.794 116.524ZM100.346 117.166C107.339 132.96 127.853 139.192 146.163 131.084C164.474 122.976 173.648 103.6 166.654 87.8049C159.661 72.0101 139.147 65.7785 120.837 73.8863C102.526 81.9941 93.3519 101.371 100.346 117.166Z" fill="url(#paint9_linear_415_372)"/>
<path fill-rule="evenodd" clip-rule="evenodd" d="M153.114 134.425C166.503 125.378 168.981 104.872 157.879 88.4408C146.777 72.0097 126.827 66.6577 113.437 75.7049C100.047 84.7522 97.5694 105.258 108.672 121.69C119.774 138.121 139.724 143.473 153.114 134.425ZM154 135.738C168.313 126.067 170.637 104.494 159.191 87.5542C147.745 70.6143 126.863 64.7217 112.55 74.3928C98.2374 84.0638 95.9135 105.636 107.36 122.576C118.806 139.516 139.688 145.409 154 135.738Z" fill="url(#paint10_linear_415_372)"/>
</g>
<path d="M205.744 85.72H213.52C217.904 85.72 221.104 86.664 223.12 88.552C225.168 90.408 226.192 92.968 226.192 96.232C226.192 100.008 225.088 102.904 222.88 104.92C220.672 106.936 217.392 107.944 213.04 107.944H211.168V121H205.744V85.72ZM213.184 103.192C216 103.192 217.968 102.568 219.088 101.32C220.208 100.072 220.768 98.568 220.768 96.808C220.768 94.92 220.224 93.384 219.136 92.2C218.048 91.016 216.224 90.424 213.664 90.424H211.168V103.192H213.184ZM247.421 121.48C244.221 121.48 241.261 120.744 238.541 119.272C235.853 117.768 233.709 115.64 232.109 112.888C230.509 110.136 229.709 106.936 229.709 103.288C229.709 99.608 230.509 96.408 232.109 93.688C233.709 90.936 235.853 88.824 238.541 87.352C241.261 85.88 244.221 85.144 247.421 85.144C250.621 85.144 253.565 85.88 256.253 87.352C258.973 88.824 261.133 90.936 262.733 93.688C264.333 96.408 265.133 99.608 265.133 103.288C265.133 106.936 264.333 110.136 262.733 112.888C261.133 115.64 258.973 117.768 256.253 119.272C253.565 120.744 250.621 121.48 247.421 121.48ZM247.421 116.632C249.629 116.632 251.645 116.12 253.469 115.096C255.293 114.04 256.733 112.52 257.789 110.536C258.877 108.52 259.421 106.12 259.421 103.336C259.421 100.52 258.877 98.12 257.789 96.136C256.733 94.12 255.293 92.6 253.469 91.576C251.677 90.552 249.661 90.04 247.421 90.04C245.181 90.04 243.149 90.552 241.325 91.576C239.501 92.6 238.061 94.12 237.005 96.136C235.949 98.12 235.421 100.52 235.421 103.336C235.421 106.12 235.965 108.52 237.053 110.536C238.141 112.52 239.597 114.04 241.421 115.096C243.277 116.12 245.277 116.632 247.421 116.632ZM288.751 121L281.647 107.656C280.175 107.72 278.863 107.752 277.711 107.752H276.367V121H271.135V85.72H279.151C283.215 85.72 286.559 86.568 289.183 88.264C291.807 89.928 293.119 92.648 293.119 96.424C293.119 98.792 292.559 100.84 291.439 102.568C290.351 104.264 288.719 105.576 286.543 106.504L294.943 121H288.751ZM279.775 103.384C282.911 103.384 285.055 102.712 286.207 101.368C287.391 99.992 287.983 98.36 287.983 96.472C287.983 92.28 285.183 90.184 279.583 90.184H276.367V103.384H279.775ZM305.23 90.424H296.206V85.72H319.678V90.424H310.558V121H305.23V90.424ZM334.906 85.672L351.898 121H345.706L342.682 114.088H326.506L323.482 121H317.482L334.378 85.672H334.906ZM332.506 100.696L328.666 109.24H340.57L336.778 100.744L334.714 95.896H334.618L332.506 100.696ZM354.853 85.72H360.277V116.2H370.405V121H354.853V85.72Z" fill="white"/>
<path d="M392.264 121.48C390.92 121.48 389.56 121.32 388.184 121C386.808 120.648 385.656 120.072 384.728 119.272L386.888 114.328C387.464 115 388.104 115.512 388.808 115.864C389.544 116.184 390.44 116.344 391.496 116.344C392.488 116.344 393.288 116.168 393.896 115.816C394.504 115.464 394.952 114.824 395.24 113.896C395.56 112.968 395.72 111.64 395.72 109.912V85.72H401.048V111.256C401.048 114.84 400.232 117.448 398.6 119.08C397 120.68 394.888 121.48 392.264 121.48ZM416.981 121.48C415.061 121.48 413.157 121.144 411.269 120.472C409.381 119.8 408.021 119.048 407.189 118.216L409.733 113.656C410.405 114.264 411.445 114.904 412.853 115.576C414.293 116.216 415.669 116.536 416.981 116.536C418.677 116.536 420.053 116.136 421.109 115.336C422.197 114.536 422.741 113.432 422.741 112.024C422.741 110.936 422.453 109.992 421.877 109.192C421.301 108.392 420.597 107.736 419.765 107.224C418.933 106.68 417.749 106.024 416.213 105.256C414.389 104.36 413.141 103.688 412.469 103.24C409.365 101.16 407.813 98.28 407.813 94.6C407.813 91.56 408.821 89.24 410.837 87.64C412.853 86.008 415.397 85.192 418.469 85.192C421.765 85.192 424.565 86.136 426.869 88.024L424.325 92.392C423.717 91.752 422.853 91.208 421.733 90.76C420.645 90.28 419.477 90.04 418.229 90.04C416.629 90.04 415.365 90.408 414.437 91.144C413.541 91.848 413.093 92.904 413.093 94.312C413.093 95.304 413.381 96.2 413.957 97C414.533 97.768 415.253 98.44 416.117 99.016C417.013 99.592 418.213 100.296 419.717 101.128C421.157 101.928 422.261 102.568 423.029 103.048C423.797 103.496 424.517 104.04 425.189 104.68C426.117 105.512 426.869 106.504 427.445 107.656C428.021 108.808 428.309 110.072 428.309 111.448C428.309 113.592 427.813 115.416 426.821 116.92C425.861 118.424 424.517 119.56 422.789 120.328C421.093 121.096 419.157 121.48 416.981 121.48Z" fill="#12B5FD"/>
<path d="M809 189C809 166.909 826.909 149 849 149H1000V160C1000 182.091 982.091 200 960 200H809V189Z" fill="#171717"/>
<path d="M854.553 183V167.468H858.007V183H854.553ZM857.215 183V179.964H864.893V183H857.215ZM869.085 183V167.468H872.539V183H869.085ZM880.371 183V180.316H884.023C884.697 180.316 885.225 180.118 885.607 179.722C885.988 179.326 886.179 178.842 886.179 178.27C886.179 177.874 886.091 177.522 885.915 177.214C885.739 176.906 885.489 176.664 885.167 176.488C884.859 176.312 884.477 176.224 884.023 176.224H880.371V173.606H883.737C884.309 173.606 884.771 173.467 885.123 173.188C885.475 172.895 885.651 172.455 885.651 171.868C885.651 171.296 885.475 170.871 885.123 170.592C884.771 170.299 884.309 170.152 883.737 170.152H880.371V167.468H884.397C885.394 167.468 886.237 167.651 886.927 168.018C887.631 168.385 888.166 168.876 888.533 169.492C888.899 170.108 889.083 170.79 889.083 171.538C889.083 172.491 888.775 173.298 888.159 173.958C887.543 174.618 886.633 175.073 885.431 175.322L885.519 174.156C886.824 174.405 887.829 174.911 888.533 175.674C889.251 176.437 889.611 177.375 889.611 178.49C889.611 179.341 889.398 180.111 888.973 180.8C888.562 181.475 887.961 182.01 887.169 182.406C886.391 182.802 885.453 183 884.353 183H880.371ZM877.731 183V167.468H881.141V183H877.731ZM896.664 176.598V174.046H899.942C900.632 174.046 901.16 173.87 901.526 173.518C901.908 173.166 902.098 172.689 902.098 172.088C902.098 171.531 901.915 171.069 901.548 170.702C901.182 170.335 900.654 170.152 899.964 170.152H896.664V167.468H900.36C901.387 167.468 902.289 167.666 903.066 168.062C903.844 168.443 904.452 168.979 904.892 169.668C905.332 170.357 905.552 171.149 905.552 172.044C905.552 172.953 905.332 173.753 904.892 174.442C904.452 175.117 903.836 175.645 903.044 176.026C902.252 176.407 901.321 176.598 900.25 176.598H896.664ZM894.024 183V167.468H897.478V183H894.024ZM902.472 183L897.632 176.312L900.8 175.454L906.564 183H902.472ZM908.615 183L914.775 167.468H917.899L923.993 183H920.341L915.677 170.108H916.931L912.201 183H908.615ZM912.113 180.184V177.368H920.583V180.184H912.113ZM930.476 176.598V174.046H933.754C934.444 174.046 934.972 173.87 935.338 173.518C935.72 173.166 935.91 172.689 935.91 172.088C935.91 171.531 935.727 171.069 935.36 170.702C934.994 170.335 934.466 170.152 933.776 170.152H930.476V167.468H934.172C935.199 167.468 936.101 167.666 936.878 168.062C937.656 168.443 938.264 168.979 938.704 169.668C939.144 170.357 939.364 171.149 939.364 172.044C939.364 172.953 939.144 173.753 938.704 174.442C938.264 175.117 937.648 175.645 936.856 176.026C936.064 176.407 935.133 176.598 934.062 176.598H930.476ZM927.836 183V167.468H931.29V183H927.836ZM936.284 183L931.444 176.312L934.612 175.454L940.376 183H936.284ZM948.109 177.214L942.125 167.468H946.129L950.727 175.344H948.153L952.751 167.468H956.667L950.639 177.214H948.109ZM947.691 183V175.63H951.145V183H947.691Z" fill="white"/>
<defs>
<filter id="filter0_i_415_372" x="99.3037" y="71.5303" width="69.3433" height="71.3428" filterUnits="userSpaceOnUse" color-interpolation-filters="sRGB">
<feFlood flood-opacity="0" result="BackgroundImageFix"/>
<feBlend mode="normal" in="SourceGraphic" in2="BackgroundImageFix" result="shape"/>
<feColorMatrix in="SourceAlpha" type="matrix" values="0 0 0 0 0 0 0 0 0 0 0 0 0 0 0 0 0 0 127 0" result="hardAlpha"/>
<feOffset dy="4"/>
<feGaussianBlur stdDeviation="1"/>
<feComposite in2="hardAlpha" operator="arithmetic" k2="-1" k3="1"/>
<feColorMatrix type="matrix" values="0 0 0 0 0 0 0 0 0 0.64 0 0 0 0 1 0 0 0 1 0"/>
<feBlend mode="normal" in2="shape" result="effect1_innerShadow_415_372"/>
</filter>
<filter id="filter1_b_415_372" x="94" y="63" width="79" height="81.5459" filterUnits="userSpaceOnUse" color-interpolation-filters="sRGB">
<feFlood flood-opacity="0" result="BackgroundImageFix"/>
<feGaussianBlur in="BackgroundImageFix" stdDeviation="2"/>
<feComposite in2="SourceAlpha" operator="in" result="effect1_backgroundBlur_415_372"/>
<feBlend mode="normal" in="SourceGraphic" in2="effect1_backgroundBlur_415_372" result="shape"/>
</filter>
<filter id="filter2_b_415_372" x="94" y="63" width="79" height="81.5459" filterUnits="userSpaceOnUse" color-interpolation-filters="sRGB">
<feFlood flood-opacity="0" result="BackgroundImageFix"/>
<feGaussianBlur in="BackgroundImageFix" stdDeviation="2"/>
<feComposite in2="SourceAlpha" operator="in" result="effect1_backgroundBlur_415_372"/>
<feBlend mode="normal" in="SourceGraphic" in2="effect1_backgroundBlur_415_372" result="shape"/>
</filter>
<linearGradient id="paint0_linear_415_372" x1="72" y1="12.5001" x2="1013.5" y2="568.5" gradientUnits="userSpaceOnUse">
<stop stop-color="#040404"/>
<stop offset="0.746378" stop-color="#353434"/>
<stop offset="0.968507" stop-color="#484747"/>
</linearGradient>
<linearGradient id="paint1_linear_415_372" x1="109.459" y1="130.718" x2="158.492" y2="81.6853" gradientUnits="userSpaceOnUse">
<stop stop-color="#FF00E5"/>
<stop offset="1" stop-color="#00E0FF"/>
</linearGradient>
<linearGradient id="paint2_linear_415_372" x1="109.459" y1="130.718" x2="158.492" y2="81.6853" gradientUnits="userSpaceOnUse">
<stop stop-color="#FF00E5"/>
<stop offset="1" stop-color="#00E0FF"/>
</linearGradient>
<linearGradient id="paint3_linear_415_372" x1="133.5" y1="67" x2="133.5" y2="140.546" gradientUnits="userSpaceOnUse">
<stop stop-color="#00E0FF"/>
<stop offset="1" stop-color="#FF00E5"/>
</linearGradient>
<linearGradient id="paint4_linear_415_372" x1="133.5" y1="67" x2="133.5" y2="140.546" gradientUnits="userSpaceOnUse">
<stop stop-color="#00E0FF"/>
<stop offset="1" stop-color="#FF00E5"/>
</linearGradient>
<linearGradient id="paint5_linear_415_372" x1="133.5" y1="67" x2="133.5" y2="140.546" gradientUnits="userSpaceOnUse">
<stop stop-color="#00E0FF"/>
<stop offset="1" stop-color="#FF00E5"/>
</linearGradient>
<linearGradient id="paint6_linear_415_372" x1="112.55" y1="74.3927" x2="154" y2="135.738" gradientUnits="userSpaceOnUse">
<stop stop-color="#00E0FF"/>
<stop offset="1" stop-color="#FF00E5"/>
</linearGradient>
<linearGradient id="paint7_linear_415_372" x1="133.5" y1="67" x2="133.5" y2="140.546" gradientUnits="userSpaceOnUse">
<stop stop-color="#00E0FF"/>
<stop offset="1" stop-color="#FF00E5"/>
</linearGradient>
<linearGradient id="paint8_linear_415_372" x1="133.5" y1="67" x2="133.5" y2="140.546" gradientUnits="userSpaceOnUse">
<stop stop-color="#00E0FF"/>
<stop offset="1" stop-color="#FF00E5"/>
</linearGradient>
<linearGradient id="paint9_linear_415_372" x1="133.5" y1="67" x2="133.5" y2="140.546" gradientUnits="userSpaceOnUse">
<stop stop-color="#00E0FF"/>
<stop offset="1" stop-color="#FF00E5"/>
</linearGradient>
<linearGradient id="paint10_linear_415_372" x1="112.55" y1="74.3927" x2="154" y2="135.738" gradientUnits="userSpaceOnUse">
<stop stop-color="#00E0FF"/>
<stop offset="1" stop-color="#FF00E5"/>
</linearGradient>
</defs>
</svg>
